<svg width="25" height="24" viewBox="0 0 25 24" fill="none" xmlns="http://www.w3.org/2000/svg">
<path fill-rule="evenodd" clip-rule="evenodd" d="M11.1416 20.1059C11.6596 20.6829 12.3246 20.9999 13.0146 20.9999H13.0156C13.7086 20.9999 14.3766 20.6829 14.8956 20.1049C15.1736 19.7979 15.6476 19.7729 15.9546 20.0499C16.2626 20.3269 16.2876 20.8019 16.0106 21.1089C15.2026 22.0059 14.1396 22.4999 13.0156 22.4999H13.0136C11.8926 22.4989 10.8316 22.0049 10.0266 21.1079C9.74961 20.8009 9.77461 20.3259 10.0826 20.0499C10.3906 19.7719 10.8646 19.7969 11.1416 20.1059ZM13.0644 0.999878C17.5094 0.999878 20.4954 4.46188 20.4954 7.69488C20.4954 9.35788 20.9184 10.0629 21.3674 10.8109C21.8114 11.5489 22.3144 12.3869 22.3144 13.9709C21.9654 18.0179 17.7404 18.3479 13.0644 18.3479C8.38841 18.3479 4.16241 18.0179 3.8174 14.0349C3.81441 12.3869 4.31741 11.5489 4.76141 10.8109L4.91815 10.547C5.30408 9.88374 5.63341 9.16224 5.63341 7.69488C5.63341 4.46188 8.61941 0.999878 13.0644 0.999878ZM13.0644 2.49988C9.56941 2.49988 7.13341 5.23788 7.13341 7.69488C7.13341 9.77388 6.55641 10.7349 6.04641 11.5829C5.63741 12.2639 5.31441 12.8019 5.31441 13.9709C5.48141 15.8569 6.72641 16.8479 13.0644 16.8479C19.3674 16.8479 20.6514 15.8129 20.8174 13.9059C20.8144 12.8019 20.4914 12.2639 20.0824 11.5829C19.5724 10.7349 18.9954 9.77388 18.9954 7.69488C18.9954 5.23788 16.5594 2.49988 13.0644 2.49988Z" fill="#1E2875"/>
</svg>
